<?xml version="1.0" encoding="utf-8"?>
<!-- Generator: Adobe Illustrator 27.3.1, SVG Export Plug-In . SVG Version: 6.00 Build 0)  -->
<svg version="1.1" id="Layer_1" xmlns="http://www.w3.org/2000/svg" xmlns:xlink="http://www.w3.org/1999/xlink" x="0px" y="0px"
	 viewBox="0 0 512 512" style="enable-background:new 0 0 512 512;" xml:space="preserve">
<path d="M269.4,4.3c-4.2-1.9-8.7-2.9-13.4-2.9c-4.7,0-9.2,1-13.4,2.9L54.3,84.2c-22,9.3-38.4,31-38.3,57.2
	c0.5,99.2,41.3,280.7,213.6,363.2c16.7,8,36.1,8,52.8,0c172.3-82.5,213.1-264,213.6-363.2c0.1-26.2-16.3-47.9-38.3-57.2L269.4,4.3z
	 M256,129.4c13.3,0,24,10.7,24,24v112c0,13.3-10.7,24-24,24c-13.3,0-24-10.7-24-24v-112C232,140.1,242.7,129.4,256,129.4z
	 M224,353.4c0-17.7,14.3-32,32-32s32,14.3,32,32s-14.3,32-32,32S224,371.1,224,353.4z"/>
</svg>
