<?xml version="1.0" encoding="utf-8"?>
<!-- Generator: Adobe Illustrator 27.3.1, SVG Export Plug-In . SVG Version: 6.00 Build 0)  -->
<svg version="1.1" id="Layer_1" xmlns="http://www.w3.org/2000/svg" xmlns:xlink="http://www.w3.org/1999/xlink" x="0px" y="0px"
	 viewBox="0 0 512 512" style="enable-background:new 0 0 512 512;" xml:space="preserve">
<path d="M120.9,510.1c15.4,5.7,30.8-1.4,36.5-16.8l0,0l92.7-252.8l0,0l-54.8-19.7l-92.7,252.8C98.4,487.5,106.9,504.4,120.9,510.1
	L120.9,510.1L120.9,510.1z M359.7,240.2l-2.8,8.5l60.5,22.5c12.6,5.7,28.2-1.4,33.7-14c1.4-2.8,1.4-4.3,1.4-7.1
	c5.7-70.2-21.1-139.2-73-186.9c1.4,7.1,2.8,14,2.8,21.1v5.7C385.1,140.4,378,191.1,359.7,240.2L359.7,240.2L359.7,240.2z
	 M355.5,85.6c0-30.8-19.7-59-49.1-70.2l-2.8-1.4c-29.4-11.2-63.3-2.8-84.4,21.1l-4.3,4.3c-32.3,35.1-56.2,77.3-73,120.9l-1.4,8.5
	L330.1,239l2.8-8.5c16.8-45,23.9-92.7,22.5-140.4L355.5,85.6L355.5,85.6L355.5,85.6z M36.5,98.4c-8.5,12.6-4.3,28,7.1,36.5
	c1.4,1.4,4.3,2.8,7.1,2.8l63.3,22.5l2.8-8.5c16.8-47.9,43.6-92.7,78.7-130.7l4.3-4.3C205.5,11.2,211,5.7,218.1,0
	C144.7,2.8,78.7,39.4,36.5,98.4L36.5,98.4z"/>
</svg>
