<svg id="Layer_1" data-name="Layer 1" xmlns="http://www.w3.org/2000/svg" viewBox="0 0 200 200"><title>ICON_</title><path d="M189.58,90.3v84.33a15.31,15.31,0,0,1-14.93,14.93H25.14a14.35,14.35,0,0,1-10.45-4.48,14.32,14.32,0,0,1-4.48-10.45V90.3A28.16,28.16,0,0,1,1,75.62a31,31,0,0,1,.5-17.41L12.2,24.62a19.56,19.56,0,0,1,7-10.45,18.59,18.59,0,0,1,11.44-3.73H168.18a20,20,0,0,1,12.19,3.86,19.68,19.68,0,0,1,7.22,10.32l10.94,33.59a30.29,30.29,0,0,1,.37,17.41A28.88,28.88,0,0,1,189.58,90.3Zm-67.17-7.71a17,17,0,0,0,12.19-4.73,12.47,12.47,0,0,0,4-11.44l-6.22-41H107.48V66.42a16.66,16.66,0,0,0,4.23,11.31A13.58,13.58,0,0,0,122.41,82.59Zm-46.52,0A16.29,16.29,0,0,0,87.7,77.86a15.38,15.38,0,0,0,4.86-11.44v-41H67.68L61.46,66.42a13,13,0,0,0,3.48,11.31A14.34,14.34,0,0,0,75.89,82.59Zm-45.28,0a14.56,14.56,0,0,0,10.33-4.11A16.23,16.23,0,0,0,46,68.41l6.46-43H27.63L16.18,61.69a15.67,15.67,0,0,0,2,14.3A14.22,14.22,0,0,0,30.61,82.59Zm138.57,0a14.62,14.62,0,0,0,12.56-6.47,15.59,15.59,0,0,0,2.11-14.43L172.41,25.37H147.53l6.47,43a16.23,16.23,0,0,0,5.1,10.07A14.23,14.23,0,0,0,169.18,82.59Zm-144,92H174.65V97.26c.17.17-.37.25-1.62.25h-3.85a27.63,27.63,0,0,1-11.82-2.61,39.75,39.75,0,0,1-11.07-8.08,28.15,28.15,0,0,1-9.95,7.83,30.1,30.1,0,0,1-13.19,2.86,34.86,34.86,0,0,1-12.81-2.11A30.94,30.94,0,0,1,100,88.31a24.13,24.13,0,0,1-9.45,6.84,33.76,33.76,0,0,1-12.94,2.36A32.56,32.56,0,0,1,64,94.78a28.08,28.08,0,0,1-10.2-8,52.46,52.46,0,0,1-11.7,8,26.33,26.33,0,0,1-11.44,2.73H27.25a5.53,5.53,0,0,1-2.11-.25v77.37Zm149.51,0h0Z"/></svg>