<svg width="25" height="25" viewBox="0 0 25 25" fill="none" xmlns="http://www.w3.org/2000/svg">
<path d="M12.5 25C19.4036 25 25 19.4036 25 12.5C25 5.59644 19.4036 0 12.5 0C5.59644 0 0 5.59644 0 12.5C0 19.4036 5.59644 25 12.5 25Z" fill="#225DA8"/>
<path d="M7.66758 17.3328C7.44414 17.1098 7.44414 16.7468 7.66758 16.529L11.6946 12.5L7.66758 8.47096C7.44414 8.24799 7.44414 7.88501 7.66758 7.66723C7.89101 7.44426 8.24954 7.44426 8.47298 7.66723L12.5 11.6963L16.527 7.66723C16.7505 7.44426 17.109 7.44426 17.3324 7.66723C17.5559 7.8902 17.5559 8.25318 17.3324 8.47096L13.3054 12.5L17.3324 16.529C17.5559 16.752 17.5559 17.115 17.3324 17.3328C17.109 17.5557 16.7505 17.5557 16.527 17.3328L12.5 13.3037L8.47298 17.3328C8.24954 17.5557 7.89101 17.5557 7.66758 17.3328Z" fill="white"/>
</svg>
