<svg id="Layer_1" data-name="Layer 1" xmlns="http://www.w3.org/2000/svg" viewBox="0 0 200 200"><title>ICON_</title><path d="M194.89,70.86c-.18-.73.14-1.67,1-2.94a19.39,19.39,0,0,1,2.85-3.19A6.07,6.07,0,0,0,200,63.07V60.49a5.35,5.35,0,0,1-1.74,3.74,19.56,19.56,0,0,0-2.94,3.31c-1,1.44-1.32,2.55-1.09,3.48a3.59,3.59,0,0,0,2,2.15,8.51,8.51,0,0,0,2.14.91,4.17,4.17,0,0,0,.49.08c.57.08,1,.14,1.12.57v-1a2.87,2.87,0,0,0-1-.27,4.08,4.08,0,0,1-.42-.07,7.59,7.59,0,0,1-2-.84C195.58,72,195.05,71.48,194.89,70.86Z"/><path d="M200,21V16.88a21.06,21.06,0,0,0-1.25-3.36,15.79,15.79,0,0,0-5-6.47c-4-2.86-8.12-1.69-11.26-.36A7.41,7.41,0,0,1,174.73,6,11.88,11.88,0,0,0,171,4.25a19.28,19.28,0,0,0-5.47-.76,29.61,29.61,0,0,0-4.77.43,66.28,66.28,0,0,0-21.86,7.87c-1.22.7-2.45,1.43-3.64,2.14a62.92,62.92,0,0,1-10.48,5.42,127.54,127.54,0,0,1-19.18,4.81c-1.58.3-3.16.62-4.74.94a55,55,0,0,0-15.31,5c-6.64,3.55-10.06,9.35-10.46,17.73A76.78,76.78,0,0,0,75.6,58.5c.1,1,.19,2,.27,3.07,0,.44.06.88.09,1.32a23.52,23.52,0,0,0,.23,2.64c.31,1.9.44,3.86.57,5.75.1,1.54.2,3.13.4,4.69.23,1.76.35,3.58.46,5.33,0,.38,0,.76.07,1.14.44,6.55-1.16,11.42-5,15.33A81.64,81.64,0,0,0,67,104.12c-4,5-6.41,11.07-7.34,18.46a37.82,37.82,0,0,0,.14,10.35,36,36,0,0,0,4.91,13.32,11.91,11.91,0,0,1,1.58,9.66,74,74,0,0,0-2,11.32,49.63,49.63,0,0,0,1,15.5,47.74,47.74,0,0,0,6.29,15.52,5.12,5.12,0,0,1,.31.62,3.7,3.7,0,0,0,.69,1.13h1.15a.38.38,0,0,0-.21-.2c-.55-.2-.76-.67-1-1.21a6.61,6.61,0,0,0-.36-.7,46.92,46.92,0,0,1-6.2-15.3,48,48,0,0,1-1-15.29,71.45,71.45,0,0,1,2-11.21A12.53,12.53,0,0,0,65.3,145.9a35.48,35.48,0,0,1-4.82-13.07,37.29,37.29,0,0,1-.13-10.17c.91-7.26,3.27-13.19,7.2-18.11a80,80,0,0,1,5.62-6.3c3.94-4,5.65-9.19,5.21-15.85l-.08-1.14c-.11-1.77-.23-3.6-.45-5.38-.2-1.54-.31-3.12-.41-4.65-.13-1.9-.26-3.87-.57-5.81a21.74,21.74,0,0,1-.23-2.56c0-.45,0-.9-.08-1.34-.09-1-.18-2.06-.28-3.08a77.26,77.26,0,0,1-.47-10.56c.38-8.12,3.68-13.73,10.09-17.16A54.8,54.8,0,0,1,101,25.77l4.73-.94c6.39-1.25,13-2.54,19.28-4.84a62.39,62.39,0,0,0,10.6-5.47c1.19-.71,2.41-1.44,3.63-2.14A65.49,65.49,0,0,1,160.9,4.6a21.6,21.6,0,0,1,9.94.31,11.09,11.09,0,0,1,3.49,1.65,8,8,0,0,0,8.38.76c3-1.26,6.88-2.37,10.6.29a15.25,15.25,0,0,1,4.83,6.2A19.59,19.59,0,0,1,200,21Z"/><path d="M200,8.65v-2a11.59,11.59,0,0,0-3.52-3.74A5.13,5.13,0,0,0,193.91,2a26,26,0,0,0-4.49,0L188.2,2A94.82,94.82,0,0,1,171.85.75,101.1,101.1,0,0,0,160,0h-.52C155,0,150.53,1.18,145,3.78c-3.22,1.5-6.35,3.27-9.39,5l-3,1.67c-8.53,4.7-18,6.81-27.1,8.85-7.33,1.63-15.07,3.75-22,8.13-8.56,5.41-13.32,13-14.13,22.49a59.75,59.75,0,0,0,.29,12.73c.31,2.39.75,4.81,1.18,7.14a79.15,79.15,0,0,1,1.58,12.16,19,19,0,0,1-.55,6.38c-1.16,3.69-3.61,6.56-6.07,9.11-6.6,6.83-10.44,13.51-12.07,21a36.61,36.61,0,0,0-.47,13.82,40.13,40.13,0,0,0,3.6,11A34.41,34.41,0,0,1,60,161.77L59.8,164c-.26,2.76-.53,5.6-.69,8.4a29.24,29.24,0,0,0,3.57,15.23A94.27,94.27,0,0,0,68,196.36c.78,1.19,1.58,2.42,2.35,3.64H71a.32.32,0,0,0,0-.23c-.8-1.27-1.63-2.55-2.44-3.79a95.46,95.46,0,0,1-5.24-8.67,28.71,28.71,0,0,1-3.5-14.88c.16-2.78.43-5.63.69-8.37l.21-2.23A35.05,35.05,0,0,0,57.48,143a40.12,40.12,0,0,1-3.54-10.85,36.07,36.07,0,0,1,.47-13.56c1.6-7.39,5.38-14,11.89-20.71,2.53-2.61,5-5.55,6.23-9.37a19.9,19.9,0,0,0,.59-6.61,80,80,0,0,0-1.6-12.26c-.43-2.33-.87-4.73-1.17-7.11A59,59,0,0,1,70.06,50c.79-9.29,5.44-16.69,13.81-22,6.84-4.33,14.51-6.42,21.78-8,9.18-2,18.67-4.16,27.29-8.92l3-1.66c3-1.7,6.15-3.46,9.34-4.95C150.94,1.74,155.47.59,160,.69a99.44,99.44,0,0,1,11.77.74,94.24,94.24,0,0,0,16.48,1.26q.61,0,1.23-.06a24.44,24.44,0,0,1,4.36,0,4.47,4.47,0,0,1,2.25.79C198.09,5,199.53,6.45,200,8.65Z"/><path d="M200,78.14v-.7l-.3-.1a20.64,20.64,0,0,1-5.64-2.55c-2.57-1.87-5.18-4.91-3-8.79a34.82,34.82,0,0,0,4.22-13.47l.24-2.08a67.83,67.83,0,0,0,.71-10.12,26.69,26.69,0,0,0-4.3-14.4,40.24,40.24,0,0,0-17.47-14.44A29.74,29.74,0,0,0,162,8.88a38.21,38.21,0,0,0-6.37.56,28.67,28.67,0,0,0-12.3,5.64,54.88,54.88,0,0,1-8.16,5.28c-7.4,3.68-15.57,5-23.48,6.26l-1.23.2a74.83,74.83,0,0,0-15.64,3.8c-5.54,2.16-9.39,4.81-12.1,8.32a19.4,19.4,0,0,0-3.92,15.48c.31,2.11.74,4.22,1.14,6.25.21,1,.41,2,.6,3A93.21,93.21,0,0,1,82.24,75.6,60.5,60.5,0,0,1,82,86.49a46.46,46.46,0,0,1-2.27,10,33.68,33.68,0,0,1-8.11,12.55c-3.26,3.22-5.06,6.21-5.69,9.42A62.72,62.72,0,0,1,62.7,129.7a8.17,8.17,0,0,0-.77,4.63,14.92,14.92,0,0,0,4.22,7.35l1.31,1.38a22.62,22.62,0,0,1,4.94,6.57c1.06,2.48,1,4.55-.3,6.31a16.13,16.13,0,0,1-2.52,2.85c-2.45,2.13-3,4.86-1.58,8.1l.29.64a22.28,22.28,0,0,1,2,6.12c.49,4,.76,8.15,1,12.13l0,.68a22.47,22.47,0,0,0,2.83,9.71c.17.3.33.61.49.92A8.49,8.49,0,0,0,76.73,200H78l0,0c-1.41-.63-2.05-1.88-2.73-3.2-.17-.32-.33-.64-.5-.95A21.73,21.73,0,0,1,72,186.42l-.05-.68c-.26-4-.53-8.13-1-12.17a22.89,22.89,0,0,0-2.06-6.31l-.28-.64c-1.29-3-.83-5.37,1.4-7.32a16.63,16.63,0,0,0,2.62-3c1.42-2,1.54-4.25.38-7A23.2,23.2,0,0,0,68,142.59l-1.3-1.37a14.22,14.22,0,0,1-4-7,7.5,7.5,0,0,1,.72-4.25,63,63,0,0,0,3.3-11.35c.6-3.07,2.35-5.95,5.5-9.07a34.27,34.27,0,0,0,8.27-12.8,47,47,0,0,0,2.31-10.15,61,61,0,0,0,.21-11,94.12,94.12,0,0,0-1.68-12c-.19-1-.39-2-.6-3-.4-2-.82-4.13-1.14-6.22a18.78,18.78,0,0,1,3.79-15c2.63-3.41,6.39-6,11.81-8.11a74.91,74.91,0,0,1,15.5-3.76l1.23-.2C119.79,26,128,24.7,135.51,21a54.56,54.56,0,0,0,8.25-5.34,28,28,0,0,1,12-5.51,31,31,0,0,1,18.42,2,39.51,39.51,0,0,1,17.17,14.19,25.86,25.86,0,0,1,4.19,14,66.87,66.87,0,0,1-.7,10l-.24,2.08a34,34,0,0,1-4.14,13.21c-1.94,3.42-.84,6.77,3.18,9.68A20.73,20.73,0,0,0,199.48,78l.43.15Z"/><path d="M122.68,152.9a39.68,39.68,0,0,1,.34,6c-.17,4-1.53,6.6-4.28,8.27a22.31,22.31,0,0,0-7.67,8.15,47.45,47.45,0,0,1-2.91,4.24c-.39.52-.77,1-1.15,1.57-2.54,3.54-5.54,4.32-10,2.61A21.76,21.76,0,0,1,86.38,175c-3-4.63-4.34-9.15-4-13.81.08-1.28.23-2.58.38-3.84.1-.81.2-1.65.28-2.48a8.06,8.06,0,0,0-2-6.22,15.64,15.64,0,0,1-3.47-6.73,6.09,6.09,0,0,0-7.09-4.36c-1,.21-1.65,0-2.35-1.83-1.24-3.26-.08-6.23,1.37-9a36.65,36.65,0,0,1,5.17-6.88l1.11-1.27A52.26,52.26,0,0,0,87.49,94.82a58.15,58.15,0,0,0,1.1-15.49,70,70,0,0,0-2.42-13.24l-.26-1C84.65,60,83.59,55,84.38,50a17.53,17.53,0,0,1,6.16-11c4.86-4.22,10.79-5.9,16.47-7.09,2.38-.5,4.82-.89,7.17-1.27a101.34,101.34,0,0,0,11.35-2.28,112.06,112.06,0,0,0,20.05-8.13c4.69-2.37,9.77-4.69,15.16-5.68,7.14-1.3,12.76.2,17.18,4.59,1,1,2.1,2,3.15,2.93,1.22,1.1,2.49,2.24,3.65,3.44a20.26,20.26,0,0,1,5.64,10.11,22.28,22.28,0,0,1,.17,8.09c-.27,1.65-.49,3.34-.71,5-.12,1-.25,1.93-.38,2.89a53.65,53.65,0,0,1-2.6,10.36c-1.81,5-.78,9.58,3,13.51,1,1,2,2,3.08,2.87s1.84,1.62,2.7,2.48l.82.8c1.63,1.56,3.18,3,3.53,5.35V84.76a14.52,14.52,0,0,0-3.06-3.66l-.8-.78c-.88-.88-1.83-1.71-2.74-2.52s-2.08-1.83-3-2.82c-3.67-3.78-4.61-8-2.88-12.81a53.36,53.36,0,0,0,2.63-10.49c.14-1,.27-1.93.4-2.9.21-1.63.43-3.31.7-5A23.15,23.15,0,0,0,191,35.5,21,21,0,0,0,185.21,25c-1.18-1.21-2.45-2.36-3.68-3.47-1-.94-2.12-1.91-3.13-2.91a17.56,17.56,0,0,0-12.92-5.24,27.14,27.14,0,0,0-4.86.47c-5.47,1-10.61,3.35-15.35,5.74a110.31,110.31,0,0,1-19.93,8.07A98.63,98.63,0,0,1,114.07,30c-2.36.39-4.81.78-7.2,1.28-5.76,1.21-11.79,2.93-16.78,7.24A18.2,18.2,0,0,0,83.7,49.87c-.81,5.18.27,10.22,1.55,15.35l.26,1a69.14,69.14,0,0,1,2.39,13.1,56.86,56.86,0,0,1-1.08,15.32,51.65,51.65,0,0,1-11.59,23.45l-1.11,1.27a36.86,36.86,0,0,0-5.27,7c-1.52,2.86-2.74,6-1.4,9.51.62,1.63,1.4,2.63,3.13,2.26A5.39,5.39,0,0,1,76.87,142a16.15,16.15,0,0,0,3.62,7,7.37,7.37,0,0,1,1.82,5.71c-.08.82-.18,1.65-.27,2.46-.16,1.27-.31,2.58-.39,3.88-.3,4.81,1.06,9.47,4.15,14.23a22.55,22.55,0,0,0,10.94,9c4.76,1.82,8.11.94,10.83-2.86.37-.52.75-1,1.14-1.55a48.16,48.16,0,0,0,3-4.31,21.65,21.65,0,0,1,7.44-7.91c2.92-1.77,4.43-4.66,4.6-8.82a40.79,40.79,0,0,0-.34-6.08c-.11-1.05-.23-2.14-.3-3.2l0-.44a31.16,31.16,0,0,1,.06-6.83,17.42,17.42,0,0,1,10.36-13.59,60.9,60.9,0,0,1,19.73-5.11c4.28-.45,8.75-1.32,12.5-4.54a19.11,19.11,0,0,1,6-3.72,43.4,43.4,0,0,1,9.78-1.85c1.32-.15,2.68-.3,4-.5a29.6,29.6,0,0,0,9.86-2.79,11.23,11.23,0,0,0,4.61-3.82v-1.61c-.84,2.45-2.89,3.73-4.94,4.83a28.73,28.73,0,0,1-9.63,2.71c-1.33.2-2.69.35-4,.5a43.51,43.51,0,0,0-9.93,1.89,19.49,19.49,0,0,0-6.26,3.85c-3.61,3.09-8,3.92-12.13,4.37a61.67,61.67,0,0,0-20,5.17,18.06,18.06,0,0,0-10.74,14.11,31.32,31.32,0,0,0-.07,7l0,.43C122.45,150.75,122.57,151.84,122.68,152.9Z"/><path d="M166.44,19.85a42.18,42.18,0,0,1,13.13,8.76c2.58,2.5,4.71,4.59,6.85,6.87.86.92,1.38,1.52,1.27,2.13s-.64.92-1.73,1.47a3.52,3.52,0,0,0-2,3.48c0,3.61-.23,7.26-.48,10.8-.12,1.62-.24,3.3-.33,5s-.2,3.24-.31,4.82c-.05.86-.11,1.71-.17,2.55a14,14,0,0,0,4.06,11.21c.66.67,1.35,1.34,2,2a46.43,46.43,0,0,1,6.1,6.77,22.26,22.26,0,0,1,3.41,8,5.11,5.11,0,0,1-2.69,6l-.08,0a2.72,2.72,0,0,0-1,.71c-2.66,4-6.79,5.75-10.77,7.48a86.24,86.24,0,0,1-12.22,4,36.25,36.25,0,0,1-6,.89l-2.05.2a12.32,12.32,0,0,0-5,1.52,2.11,2.11,0,0,0-.94,1c-.72,1.64-2.28,2.44-4.4,2.25A37.09,37.09,0,0,0,138,119.89a107.55,107.55,0,0,0-21.15,9.87,9.71,9.71,0,0,0-3.81,3.8c-1.52,2.91-.59,5.62.53,7.9.34.71.73,1.41,1.1,2.1a26,26,0,0,1,2.14,4.63c1.6,5.15.65,10.19-2.8,15a42.2,42.2,0,0,1-4.11,4.64l-.69.71a8.44,8.44,0,0,0-2.46,6.11,5.23,5.23,0,0,1-2,4.47,5.77,5.77,0,0,1-5.12.66c-3.55-1.08-6-3.44-8.69-6.64a10.48,10.48,0,0,1-2.88-7.59,9.24,9.24,0,0,1,1.38-3.79l.23-.42a4.53,4.53,0,0,0,.83-2.74.25.25,0,0,1,0-.12.21.21,0,0,1,0-.11c.12-2-1-3.58-2.1-5.21l-.48-.7A25.9,25.9,0,0,1,84,145.31c-1.57-5.14-.53-10.16,3.15-15.34.84-1.18,1.75-2.34,2.62-3.46,1.2-1.53,2.43-3.11,3.51-4.76a43.74,43.74,0,0,0,6.51-16.62,46.83,46.83,0,0,0,.22-14.27,41.53,41.53,0,0,0-3.82-12.75c-.71-1.45-1.54-2.88-2.34-4.25s-1.58-2.71-2.28-4.13a36.13,36.13,0,0,1-2.83-10.34,35,35,0,0,1-.3-5.37c0-7.8,4.12-13.22,11.38-14.87,2.11-.48,4.28-.81,6.38-1.13,1.28-.19,2.6-.39,3.89-.62s2.76-.46,4.1-.67c1.81-.27,3.68-.56,5.5-.93s4-.68,6.18-.91c6.7-.69,12.42-3.74,17.13-6.65L146.6,26c3.17-2,6.44-4.05,9.79-5.86a10.74,10.74,0,0,1,5.18-1.37A12.66,12.66,0,0,1,166.44,19.85ZM91.21,158.51a5.19,5.19,0,0,1-.91,3.15l-.23.42a8.61,8.61,0,0,0-1.29,3.51,9.83,9.83,0,0,0,2.71,7.1c2.57,3.11,5,5.39,8.37,6.42a5,5,0,0,0,4.52-.55,4.68,4.68,0,0,0,1.71-3.93,9.14,9.14,0,0,1,2.65-6.58l.7-.71a40.75,40.75,0,0,0,4-4.57c3.33-4.6,4.24-9.44,2.71-14.38a25.55,25.55,0,0,0-2.09-4.5c-.38-.69-.77-1.41-1.12-2.13-1.12-2.29-2.19-5.32-.52-8.52a10.36,10.36,0,0,1,4.07-4.06,108.36,108.36,0,0,1,21.28-9.94,37.76,37.76,0,0,1,15.36-2.11,3.41,3.41,0,0,0,3.72-1.85,2.65,2.65,0,0,1,1.22-1.32,12.78,12.78,0,0,1,5.26-1.61l2.06-.2a36.46,36.46,0,0,0,5.91-.87,86.19,86.19,0,0,0,12.12-4c3.9-1.69,7.93-3.43,10.48-7.23a3.11,3.11,0,0,1,1.22-.93l.08,0a4.44,4.44,0,0,0,2.34-5.27,21.7,21.7,0,0,0-3.3-7.77,46,46,0,0,0-6-6.67c-.67-.65-1.36-1.32-2-2A14.62,14.62,0,0,1,182,65.64c0-.85.11-1.7.17-2.55.11-1.59.22-3.23.31-4.82s.21-3.33.32-5c.26-3.52.52-7.16.48-10.75a4.19,4.19,0,0,1,2.38-4.09c.68-.35,1.32-.7,1.36-1s-.48-.91-1.09-1.56c-2.12-2.26-4.26-4.35-6.82-6.84a41.43,41.43,0,0,0-12.92-8.62,10.43,10.43,0,0,0-9.47.29c-3.33,1.81-6.59,3.85-9.74,5.83l-3.57,2.23c-4.78,2.94-10.58,6-17.42,6.74-2.18.22-4.24.53-6.12.9s-3.71.66-5.53.94c-1.34.21-2.72.42-4.07.66s-2.63.44-3.92.63c-2.08.32-4.24.64-6.33,1.12C93.09,41.39,89.14,46.57,89.16,54a36,36,0,0,0,.29,5.26,35.1,35.1,0,0,0,2.78,10.15c.68,1.39,1.48,2.76,2.25,4.08s1.65,2.82,2.36,4.31a41.94,41.94,0,0,1,3.89,13,47.49,47.49,0,0,1-.23,14.47,44.26,44.26,0,0,1-6.61,16.89c-1.09,1.67-2.34,3.26-3.54,4.81-.87,1.11-1.77,2.26-2.6,3.43-3.55,5-4.55,9.82-3.06,14.74a25,25,0,0,0,3.82,6.95l.49.7c1.15,1.65,2.35,3.36,2.21,5.64a.17.17,0,0,1,0,.07Z"/><path d="M160.62,26.47A21.76,21.76,0,0,1,168.24,31a12.41,12.41,0,0,1,3.9,7.9,32,32,0,0,0,1.68,7.62,70.8,70.8,0,0,1,3.65,16,43.22,43.22,0,0,0,2.28,10.38,38.85,38.85,0,0,0,3.84,6.93c.68,1.06,1.38,2.15,2,3.26,1.9,3.27,3.86,6.65,4.82,10.53a4.22,4.22,0,0,1-1.29,4.45,16.52,16.52,0,0,1-6.12,3.3,106.69,106.69,0,0,1-12.56,3.13l-3.05.63c-3.62.78-7.36,1.57-10.3,4.36-1.53,1.45-3,1.47-4.85,0a19,19,0,0,0-13.81-4.22,9.09,9.09,0,0,0-4.76,1.7,2.7,2.7,0,0,0-.76,4,4.73,4.73,0,0,1,.69,2,.68.68,0,0,0,.08.34.48.48,0,0,0,.25,0,.34.34,0,1,1,.06.68,1.13,1.13,0,0,1-.26,0c-.47,2.05-2.59,2.51-3.3,2.66a32.66,32.66,0,0,0-11.69,5.64l-.12.09c-1.08.75-2.43,1.7-3.9,1.3a23.12,23.12,0,0,0-7.6-.47c-2.5.12-3.48-1-4.29-3.1-.91-2.29-.17-4.43.77-6.41,1.28-2.7,2.4-5.67,2-9.08a5.75,5.75,0,0,1,.9-3.81,8.52,8.52,0,0,0,.64-7.41A34.92,34.92,0,0,1,105,82.25c.07-3.72-.07-7.49-.21-11.13-.14-3.81-.28-7.75-.19-11.63A9,9,0,0,1,106,54.86a15.25,15.25,0,0,1,6.67-5.38c2.56-1.24,5.21-2.38,7.78-3.48,1.54-.66,3.14-1.35,4.69-2a76.55,76.55,0,0,0,16-9.14l1.69-1.33A51.91,51.91,0,0,1,152,27.23a11.93,11.93,0,0,1,5.29-1.35A10,10,0,0,1,160.62,26.47ZM107.1,122.6a24,24,0,0,1,7.82.5c1.16.31,2.31-.49,3.32-1.2l.13-.09a33,33,0,0,1,11.93-5.74c1.73-.38,2.62-1.12,2.82-2.34a1.24,1.24,0,0,1-.18-.66,4,4,0,0,0-.61-1.75,3.39,3.39,0,0,1,.95-4.86,10,10,0,0,1,5.12-1.82A19.58,19.58,0,0,1,152.68,109c1.56,1.22,2.67,1.22,4,0,3.08-2.91,6.92-3.73,10.63-4.53l3-.63a107.84,107.84,0,0,0,12.48-3.11,15.81,15.81,0,0,0,5.87-3.16,3.54,3.54,0,0,0,1.1-3.78A40.09,40.09,0,0,0,185,83.44c-.63-1.09-1.33-2.18-2-3.22a40.85,40.85,0,0,1-3.9-7.06,43.89,43.89,0,0,1-2.32-10.55,70.06,70.06,0,0,0-3.61-15.82A32.35,32.35,0,0,1,171.46,39a11.72,11.72,0,0,0-3.68-7.47,21.09,21.09,0,0,0-7.38-4.43,10.06,10.06,0,0,0-8.12.73,51.59,51.59,0,0,0-9,6.17l-1.7,1.34a77.56,77.56,0,0,1-16.19,9.23c-1.56.7-3.16,1.38-4.7,2.05-2.56,1.1-5.21,2.24-7.76,3.46a14.71,14.71,0,0,0-6.38,5.14,8.18,8.18,0,0,0-1.31,4.27c-.09,3.87.06,7.79.2,11.59s.27,7.44.2,11.17a34.64,34.64,0,0,0,2.14,11,9.12,9.12,0,0,1-.71,8,5.06,5.06,0,0,0-.8,3.37c.45,3.59-.77,6.79-2,9.45-.81,1.71-1.6,3.72-.75,5.87s1.57,2.67,3.23,2.67Z"/><path d="M153.4,36.75h.13c2.66.34,5,.74,7.15,2.11a25.25,25.25,0,0,1,10.07,12.65c1,2.73,2,5.93.83,9.29a11.54,11.54,0,0,0,.19,8,7,7,0,0,1-.57,6.62,10.54,10.54,0,0,0-1.63,7.16,5.92,5.92,0,0,1-1.42,4.55,4.65,4.65,0,0,0-1,4c.59,3.75-.77,6.52-4.05,8.24-5.25,2.74-10.88,3.6-15.71,4.07-2.42.24-4.24-1.45-5.7-2.8a5.29,5.29,0,0,0-2.76-1.54c-4.3-.51-8.93-.82-13.54.46a5.48,5.48,0,0,0-3.68,3.39c-.54,1.34.07,2.37,1.23,3.6a3.24,3.24,0,0,1,.82,2.87,2.52,2.52,0,0,1-1.42,1.88c-2.19,1-4.24.89-5.76-.23a10.17,10.17,0,0,1-3.75-4.72,51.46,51.46,0,0,1-2.14-8.26c-.48-2.64-.73-5.34-1-8-.1-1.11-.21-2.25-.33-3.37-.42-3.82-.58-7.7-.74-11.46l0-.38c0-1-.1-1.94-.15-2.88a49.07,49.07,0,0,1,.22-11.22,12.27,12.27,0,0,1,6.31-9c3.2-1.84,6.76-2.47,9.9-3a34.37,34.37,0,0,0,13.21-5.14l.78-.51A64.75,64.75,0,0,1,147,38.3a18.23,18.23,0,0,1,4.65-1.25c.52-.09,1.07-.19,1.59-.3h.16ZM122,110.65a1.87,1.87,0,0,0,1-1.4,2.6,2.6,0,0,0-.65-2.26c-1.13-1.2-2.08-2.55-1.36-4.33a6.14,6.14,0,0,1,4.13-3.79c4.72-1.31,9.43-1,13.81-.47a5.8,5.8,0,0,1,3.13,1.7c1.36,1.27,3.06,2.84,5.18,2.63,4.75-.47,10.31-1.31,15.45-4a6.62,6.62,0,0,0,3.7-7.52,5.36,5.36,0,0,1,1.19-4.54,5.24,5.24,0,0,0,1.25-4A11.26,11.26,0,0,1,170.63,75a6.39,6.39,0,0,0,.5-6,12.14,12.14,0,0,1-.19-8.45c1.11-3.14.15-6.2-.83-8.82a24.61,24.61,0,0,0-9.8-12.32c-2-1.29-4.3-1.67-6.87-2h-.06l-1.61.3a17.58,17.58,0,0,0-4.48,1.2,64.4,64.4,0,0,0-8.07,4.78l-.78.51A34.84,34.84,0,0,1,125,49.45c-3.09.55-6.59,1.16-9.68,2.94a11.5,11.5,0,0,0-6,8.53A47.64,47.64,0,0,0,109.11,72c.06,1,.11,1.93.16,2.9v.37c.16,3.75.32,7.62.74,11.41.12,1.13.23,2.28.33,3.39.25,2.59.5,5.27,1,7.89a52.25,52.25,0,0,0,2.11,8.15,9.61,9.61,0,0,0,3.51,4.4,4,4,0,0,0,2.44.78A6.7,6.7,0,0,0,122,110.65Z"/><path d="M200,114.82v-1a.32.32,0,0,0-.1.1,3.2,3.2,0,0,1-2.07,1.19c-.22.06-.44.12-.66.2l-1.31.44c-4.19,1.43-8.54,2.9-13.12,2.8h-2.3c-.87,0-1.77,0-2.65,0-3.35-.1-5.47,1.31-6.52,4.34a5.06,5.06,0,0,1-3.35,3.23,79.7,79.7,0,0,1-11.9,2.65l-2.09.36c-1.31.23-2.64.41-3.94.6a54.2,54.2,0,0,0-8.74,1.71c-5.24,1.63-8.25,4.3-9.45,8.42a18.92,18.92,0,0,0-.53,2.76c-.1.73-.21,1.48-.38,2.2a9.57,9.57,0,0,1-1.2,2.58,12,12,0,0,0-1.1,2.21,13.05,13.05,0,0,0-.16,5.9v.05c.34,2.77-.37,5.45-1.25,8.42a68.94,68.94,0,0,1-3,7.64c-.75,1.73-1.52,3.53-2.18,5.34-1.74,4.78-3.31,11.08,0,17.37l.32.61a14.42,14.42,0,0,0,3.7,5.1h1.22c-2.13-1.23-3.24-3.36-4.31-5.41l-.33-.62c-3.19-6.06-1.66-12.17,0-16.81.66-1.8,1.43-3.59,2.17-5.31a72.13,72.13,0,0,0,3-7.72c.9-3,1.62-5.79,1.26-8.69v-.05a12.39,12.39,0,0,1,.12-5.6,11.94,11.94,0,0,1,1.05-2.08,10.27,10.27,0,0,0,1.27-2.77,22.81,22.81,0,0,0,.4-2.26,17.23,17.23,0,0,1,.51-2.67c1.13-3.87,4-6.4,9-7.95a54.54,54.54,0,0,1,8.64-1.7c1.3-.18,2.64-.37,4-.6l2.08-.35a80.5,80.5,0,0,0,12-2.68,5.8,5.8,0,0,0,3.78-3.66c.94-2.74,2.8-4,5.85-3.87.89,0,1.8,0,2.68,0s1.52,0,2.28,0c4.71.09,9.1-1.4,13.35-2.84l1.31-.45.63-.18A4.83,4.83,0,0,0,200,114.82Z"/><path d="M200,126.4v-.74l-2.11.92c-1.85.8-3.69,1.61-5.54,2.4a21.9,21.9,0,0,0-10.41,8.69c-.28.45-.55.91-.82,1.37-.5.85-1,1.73-1.58,2.55a8.85,8.85,0,0,1-9.21,3.31A17,17,0,0,1,165,142l-.82-.57c-3.71-2.55-7.46-2.71-11.16-.47a29.48,29.48,0,0,0-9.86,9.85,8.6,8.6,0,0,0-1.27,3.73,7.75,7.75,0,0,0,2.5,6.08c3,3.2,5.75,6.42,7.32,10.49,1.65,4.28,1.39,6-3.43,8a9.72,9.72,0,0,0-5.72,6,16.55,16.55,0,0,0,0,11.54c.11.33.2.68.29,1a5.36,5.36,0,0,0,.93,2.3h1a3.78,3.78,0,0,1-1.26-2.46c-.09-.37-.18-.75-.31-1.12a15.88,15.88,0,0,1,0-11.08,9,9,0,0,1,5.33-5.58c5.38-2.17,5.53-4.39,3.81-8.86-1.62-4.18-4.45-7.45-7.46-10.7a7,7,0,0,1-2.32-5.55,8,8,0,0,1,1.17-3.44,28.91,28.91,0,0,1,9.64-9.63c3.49-2.11,6.89-2,10.42.45l.81.57a17.38,17.38,0,0,0,5.6,3A9.51,9.51,0,0,0,180.1,142c.58-.84,1.1-1.72,1.6-2.58.27-.46.54-.91.82-1.36a21.2,21.2,0,0,1,10.11-8.42l5.53-2.4Z"/><path d="M155.59,49.79c1,1,1.4,2.51,1.15,4.62a1.5,1.5,0,0,0,0,.3,1.54,1.54,0,0,1,0,.6,3.28,3.28,0,0,0,1.08,3.77,13.52,13.52,0,0,1,2.11,2.27,3.38,3.38,0,0,1,.51,3.76c-1,1.77-2.26,3.45-4.48,3.78A13.21,13.21,0,0,0,148.88,72a5,5,0,0,1-6.57.3,4.34,4.34,0,0,0-3.14-1,.34.34,0,0,1-.34-.15,5.8,5.8,0,0,0-3.58,1.9c-.35.41-.71.8-1.07,1.2s-1,1.11-1.5,1.7a21.56,21.56,0,0,1-3.48,3.63c-1.57,1.21-3.11,1.64-4.43,1.25a4.75,4.75,0,0,1-2.89-3.27,8.9,8.9,0,0,1-.57-3,15.36,15.36,0,0,0-.66-4.69l-.21-.74c-.39-1.33-.8-2.7-1.15-4.06a3.94,3.94,0,0,1,.61-3.43A4.28,4.28,0,0,1,123.19,60a19.19,19.19,0,0,1,2,.08,9,9,0,0,0,3.7-.24,68,68,0,0,0,14.49-7.27c.38-.24.75-.49,1.12-.74a16.16,16.16,0,0,1,6-2.93,10.11,10.11,0,0,1,1.83-.18A4.59,4.59,0,0,1,155.59,49.79Zm-30.44,11a18,18,0,0,0-1.94-.07A3.55,3.55,0,0,0,120.45,62a3.29,3.29,0,0,0-.5,2.84c.35,1.36.75,2.73,1.14,4.05l.22.73a16.46,16.46,0,0,1,.68,4.9,8.11,8.11,0,0,0,.54,2.78A4.13,4.13,0,0,0,125,80.18,4.4,4.4,0,0,0,128.78,79a21.12,21.12,0,0,0,3.37-3.53c.49-.6,1-1.17,1.52-1.73.36-.39.72-.78,1.06-1.18a6.52,6.52,0,0,1,4.16-2.15.35.35,0,0,1,.34.15,5.06,5.06,0,0,1,3.46,1.16,4.35,4.35,0,0,0,5.74-.25,13.92,13.92,0,0,1,7.4-3.3c1.82-.27,2.91-1.57,4-3.44a2.69,2.69,0,0,0-.45-3,13.47,13.47,0,0,0-2-2.16,4,4,0,0,1-1.31-4.49,1,1,0,0,0,0-.36,2.15,2.15,0,0,1,0-.44c.23-1.87-.09-3.23-.94-4-1.14-1.08-3.07-1-4.48-.72a15.55,15.55,0,0,0-5.74,2.81l-1.14.76a69.57,69.57,0,0,1-14.63,7.34,6.94,6.94,0,0,1-2.33.35C126.25,60.83,125.7,60.79,125.15,60.75Z"/><path d="M200,119.58v-.71a.22.22,0,0,0-.11,0c-4.19,1.69-9.22,3.32-14.72,2.61a4.33,4.33,0,0,0-3.2,1.16,19,19,0,0,0-4.17,5.62l-.11.19a12.29,12.29,0,0,1-14,6l-1.4-.34a18.25,18.25,0,0,0-7.28-.83c-7.92,1.21-14.07,4.71-18.3,10.42s-4.78,11.89-1.63,17.94c.6,1.15,1.24,2.3,1.86,3.41.81,1.46,1.64,3,2.39,4.46,1.58,3.17,1.08,6.57-1.27,8.66l-.1.09a40.06,40.06,0,0,0-3,2.85c-1.88,2-3.8,4.54-2.69,8.19a29.32,29.32,0,0,0,3.3,6.63l.26.42a6.7,6.7,0,0,1,.61,1.53,5.61,5.61,0,0,0,1,2.14h.94a.28.28,0,0,0-.1-.14,4.1,4.1,0,0,1-1.22-2.21,8,8,0,0,0-.69-1.68l-.25-.42a28.29,28.29,0,0,1-3.23-6.46c-.91-3,.36-5.17,2.53-7.54a38.66,38.66,0,0,1,2.94-2.79l.11-.1c2.58-2.3,3.14-6,1.42-9.47-.75-1.52-1.59-3-2.4-4.49-.61-1.11-1.25-2.26-1.85-3.4-3-5.8-2.48-11.75,1.57-17.21s10.12-9,17.85-10.15a17.94,17.94,0,0,1,7,.81l1.41.35a13.12,13.12,0,0,0,14.79-6.29l.1-.19a18.47,18.47,0,0,1,4-5.44,3.65,3.65,0,0,1,2.67-1C190.68,122.9,195.75,121.28,200,119.58Z"/><path d="M149.65,59a2.63,2.63,0,0,1,.25,2.47c-.89,3.13-3.25,4.8-7,5a15,15,0,0,0-10.38,4.41,2.64,2.64,0,0,1-2,1,.29.29,0,0,1-.16,0,.33.33,0,0,1-.39,0c-1.29-1.1-.44-2.1.07-2.71.08-.1.17-.2.24-.3,2.25-3,5.29-5,8.47-6.93l.13-.08c2.55-1.56,5.18-3.17,8.39-3.43h.41A2.37,2.37,0,0,1,149.65,59ZM130.57,71.13a2,2,0,0,0,1.46-.75,15.6,15.6,0,0,1,10.83-4.61c3.48-.16,5.57-1.62,6.38-4.48a2.13,2.13,0,0,0-.12-1.85,2.09,2.09,0,0,0-1.77-.47c-3,.24-5.61,1.81-8.09,3.33l-.13.07c-3.12,1.92-6.1,3.87-8.27,6.76a3.92,3.92,0,0,1-.27.33c-.57.69-.87,1.11-.2,1.71A.39.39,0,0,1,130.57,71.13Z"/><path d="M120.27,200a.33.33,0,0,0-.2-.2,4.74,4.74,0,0,1-2.09-2,12.83,12.83,0,0,0-.84-1.14c-.53-.6-1-1.23-1.54-1.84a38.7,38.7,0,0,0-3.28-3.66c-2.07-1.95-4.65-2.78-8.12-2.63-1.26.05-2.53.14-3.76.24s-2.51.19-3.77.24a8.67,8.67,0,0,1-6.91-2.79,25.26,25.26,0,0,0-5-4,2.33,2.33,0,0,0-1.25-.37,4.61,4.61,0,0,0-1.25.23,6.43,6.43,0,0,1-.66.17.81.81,0,0,0-.58.38,1.81,1.81,0,0,0-.08,1.37,48.66,48.66,0,0,0,7.17,16h.72a.33.33,0,0,0-.06-.25,47.94,47.94,0,0,1-7.17-15.95,1.2,1.2,0,0,1,0-.83.19.19,0,0,1,.12-.08,6,6,0,0,0,.73-.18,2.2,2.2,0,0,1,1.95.06,24.51,24.51,0,0,1,4.88,3.9,9.31,9.31,0,0,0,7.44,3c1.26,0,2.55-.15,3.79-.24s2.49-.19,3.74-.24c3.27-.14,5.7.64,7.63,2.45a38.83,38.83,0,0,1,3.21,3.59c.5.62,1,1.25,1.56,1.86a12.88,12.88,0,0,1,.79,1.07A6.81,6.81,0,0,0,119,200Z"/><path d="M151.37,75.39a2,2,0,0,1,.92,1.52c.14,1.52-.75,2.22-1.85,2.93a14.68,14.68,0,0,1-7,2.24h-.12a.34.34,0,0,1-.22,0,2.63,2.63,0,0,0-1.19-.14,4.84,4.84,0,0,1-.76,0,3.49,3.49,0,0,1-2.49-1.1,2.15,2.15,0,0,1-.38-1.68,4,4,0,0,1,4.49-3.19,13.7,13.7,0,0,0,7-.65,1.8,1.8,0,0,1,.71-.14A1.67,1.67,0,0,1,151.37,75.39Zm-8.71,1.21a3.35,3.35,0,0,0-3.72,2.63,1.41,1.41,0,0,0,.25,1.15,2.8,2.8,0,0,0,2,.84,4.8,4.8,0,0,0,.66,0,3.18,3.18,0,0,1,1.45.17h.06a14,14,0,0,0,6.7-2.14c1-.64,1.65-1.14,1.54-2.28a1.3,1.3,0,0,0-.59-1,1.1,1.1,0,0,0-1-.07,12.6,12.6,0,0,1-4.8.86A19.51,19.51,0,0,1,142.66,76.6Z"/><path d="M106.62,45.28c.81.76.32,1.92,0,2.69l-.07.18c-1,2.52-3,4.32-5,6.1-2.26,1.93-3,3.89-2.33,6.55.49,2.11.14,3.77-1,4.93l-.1.07h0a.34.34,0,0,1-.45.17c-1.8-.85-2.45-2.49-3.08-4.07l-.3-.75a12.8,12.8,0,0,1-.56-8.41,7.09,7.09,0,0,1,2-3.4,17.86,17.86,0,0,1,8.17-4.4,5.46,5.46,0,0,1,1.3-.18A2.14,2.14,0,0,1,106.62,45.28ZM98.51,61c-.68-2.91.1-5.14,2.54-7.23,2-1.72,3.89-3.46,4.87-5.84l.07-.18c.36-.85.59-1.53.16-1.94s-1.14-.44-2.2-.17a17.07,17.07,0,0,0-7.87,4.23,6.52,6.52,0,0,0-1.79,3.08,12.16,12.16,0,0,0,.53,8l.31.76c.57,1.45,1.12,2.83,2.52,3.59C98.66,64.24,99,62.85,98.51,61Z"/><path d="M108.53,157.14l.17.16a1.71,1.71,0,0,1,.67,2.08,3.49,3.49,0,0,0-.12.55,2.33,2.33,0,0,1-.34,1,59.64,59.64,0,0,1-4.87,6.13.34.34,0,0,1-.36.09l-1.48-.52-.06.15c-.06.14-.12.28-.17.42a.36.36,0,0,1-.44.2.34.34,0,0,1-.2-.44c0-.15.12-.3.18-.45a4,4,0,0,0,.3-.86c.51-2.87,2-5.43,4.75-8l.13-.14a1.86,1.86,0,0,1,1.15-.67A1,1,0,0,1,108.53,157.14Zm-4.83,9.32a61.89,61.89,0,0,0,4.66-5.9,1.85,1.85,0,0,0,.21-.74,3.31,3.31,0,0,1,.17-.69c.24-.61,0-.9-.5-1.32l-.19-.18c-.21-.2-.35-.17-.87.35l-.15.15a14,14,0,0,0-4.55,7.67,2.07,2.07,0,0,1,0,.22Z"/><path d="M97.4,134.84a4.35,4.35,0,0,1,2,4.25c-.28,2.19-1.35,2.64-2.2,2.63-1.59,0-1.76-1.66-1.86-2.64A4.49,4.49,0,0,1,96.8,135l.09-.06,0-.06a.35.35,0,0,1,.28-.14A.31.31,0,0,1,97.4,134.84ZM98.73,139a3.6,3.6,0,0,0-1.5-3.43A3.82,3.82,0,0,0,96,139c.12,1.14.28,2,1.18,2h0C97.6,141,98.47,141,98.73,139Z"/><path d="M136,89a10.06,10.06,0,0,0,1,.34,1.31,1.31,0,0,1,.93.75,1.67,1.67,0,0,1-.24,1.44,3.7,3.7,0,0,1-1.85,1.37l-.65.31a.37.37,0,0,1-.25,0h-.51c-.31,0-.64,0-1,0A3.44,3.44,0,0,1,131.09,92a2.17,2.17,0,0,1-.53-1.59c.09-.91.7-2,3.07-2h.06A6.63,6.63,0,0,1,136,89Zm-1.62,3.57h.51l.63-.3a3.1,3.1,0,0,0,1.54-1.09,1,1,0,0,0,.19-.84.66.66,0,0,0-.48-.34c-.35-.1-.68-.23-1-.36a5.83,5.83,0,0,0-2.14-.51c-1.5,0-2.31.5-2.4,1.42a1.46,1.46,0,0,0,.38,1.08,2.79,2.79,0,0,0,1.88.93l.47,0Z"/><path d="M157.52,43.51a51,51,0,0,1,3.4,4.31c.92,1.26,1.87,2.56,2.91,3.75a16.09,16.09,0,0,1,3.52,5.77l.05.17c.26.83.56,1.76-.17,2.54-1.34,1.45-1.15,3.13-.95,4.92l0,.31c0,.35.1.72.16,1.07a10.55,10.55,0,0,1,.21,2.41,7.2,7.2,0,0,1-3.07,5.37,6.46,6.46,0,0,0-2.14,2.6,20.84,20.84,0,0,1-10.55,11c-3.25,1.59-6,1.69-8.89.34A20.24,20.24,0,0,0,135.32,86c-3.76-.33-6.74,1.43-9.17,3.2A12.7,12.7,0,0,1,120.34,92h-.13a.31.31,0,0,1-.23,0,3.1,3.1,0,0,0-1.08-.18,3.33,3.33,0,0,1-1.52-.32,6.59,6.59,0,0,1-3.2-8.3c.7-2,1.43-4.15,1-6.31s-1-4.37-1.57-6.5-1.13-4.45-1.62-6.69a6.55,6.55,0,0,1,2.63-7.23c3.78-2.8,8-3.48,12-3.8.46,0,.93-.07,1.39-.09a21,21,0,0,0,4.88-.69,20.26,20.26,0,0,0,7.56-4.76,29.27,29.27,0,0,1,7.42-5.24,9.11,9.11,0,0,1,3.76-.82A8,8,0,0,1,157.52,43.51ZM120.25,91.32a12.13,12.13,0,0,0,5.5-2.66c2.53-1.85,5.65-3.69,9.63-3.33a21,21,0,0,1,6.94,2.13c2.69,1.26,5.25,1.15,8.3-.34a20.17,20.17,0,0,0,10.22-10.66,7.11,7.11,0,0,1,2.35-2.87,6.41,6.41,0,0,0,2.8-4.88,10.11,10.11,0,0,0-.19-2.25c-.06-.36-.12-.73-.17-1.11l0-.3c-.21-1.86-.43-3.79,1.13-5.46.42-.46.29-1,0-1.87l-.05-.18A15.63,15.63,0,0,0,163.32,52c-1.06-1.21-2-2.53-2.95-3.8A50.11,50.11,0,0,0,157,44a7.79,7.79,0,0,0-8.88-1.49,28.55,28.55,0,0,0-7.24,5.13,20.91,20.91,0,0,1-7.82,4.9,21.06,21.06,0,0,1-5,.72c-.47,0-.93.05-1.39.09-3.91.31-8,1-11.66,3.67a5.84,5.84,0,0,0-2.37,6.53c.49,2.24,1.06,4.49,1.61,6.67s1.1,4.34,1.57,6.52c.52,2.35-.28,4.66-1,6.69a6,6,0,0,0,2.89,7.47,2.82,2.82,0,0,0,1.23.24,3.67,3.67,0,0,1,1.28.22Z"/><path d="M99.84,128a3.87,3.87,0,0,1,2.43,2.16A8.21,8.21,0,0,1,103,133a26.44,26.44,0,0,1-1.23,9.86c-.91,3-2.05,6.11-5.06,8.07a.32.32,0,0,1-.27,0,.33.33,0,0,1-.24,0,.68.68,0,0,1-.47-.22c-2.49-2.73-3.55-6.16-4.41-9.43-1.39-5.25.4-9.74,5-12.66a4.8,4.8,0,0,1,2.52-.79A3.52,3.52,0,0,1,99.84,128Zm1.27,14.67a25.93,25.93,0,0,0,1.2-9.61,7.3,7.3,0,0,0-.66-2.6,3.23,3.23,0,0,0-2-1.81,3.7,3.7,0,0,0-3,.58A10.15,10.15,0,0,0,92,141.16c.84,3.2,1.87,6.53,4.27,9.15a.4.4,0,0,1,.17,0C99.16,148.5,100.24,145.56,101.11,142.7Z"/></svg>