<svg id="Layer_1" data-name="Layer 1" xmlns="http://www.w3.org/2000/svg" viewBox="0 0 83.37 83.26"><defs><style>.cls-1{fill:#666;}</style></defs><title>NoAccessibility</title><path class="cls-1" d="M68.07,24.87H62.89l-1.66-1.65a4.56,4.56,0,0,0-1.07-.79,4.34,4.34,0,0,0-2.06-.52h-1L45.71,33.26l-.4,2.42,1.12.47,4.63,2,4.86,2,.57-3.44h6.4a7.39,7.39,0,0,0,7.4-7.39V27.09A2.21,2.21,0,0,0,68.07,24.87ZM57,26.35a1.48,1.48,0,1,1,1.48,1.48A1.48,1.48,0,0,1,57,26.35Zm-5.26-6.51A2.18,2.18,0,0,0,50,19a2.21,2.21,0,0,0-2.17,1.84L47,25.37l5-5.05ZM48.81,40.35l-4.63-2-.51-.21V53.84a16.88,16.88,0,0,0,3-1.17V63.32a3,3,0,0,0,2.95,3h3a3,3,0,0,0,3-3V43.17ZM35.7,36.7H26.11a3,3,0,0,1-2.87-2.23L22.88,33a2.94,2.94,0,0,0-3.58-2.15,3,3,0,0,0-2.16,3.59l.36,1.43A8.86,8.86,0,0,0,23,42v7.39ZM23,56v7.31a3,3,0,0,0,3,3h3a3,3,0,0,0,3-3V52.67A15.73,15.73,0,0,0,35.21,54a16.16,16.16,0,0,0,4,.5,14.52,14.52,0,0,0,1.48-.07V38.26Zm5.42-36.67a1.48,1.48,0,1,0-2,2.2L39.28,33.12l2.1-2.1Z"/><path class="cls-1" d="M70,19.16,43.67,45.49l-3,3-8.87,8.87-8,8.05L20.12,69A3.6,3.6,0,1,1,15,64L23,56,40.71,38.26l5-5L57.06,21.91l7.84-7.84A3.6,3.6,0,0,1,70,19.16Z"/></svg>