<?xml version="1.0" encoding="utf-8"?>
<!-- Generator: Adobe Illustrator 23.0.1, SVG Export Plug-In . SVG Version: 6.00 Build 0)  -->
<svg version="1.1" id="Layer_1" xmlns="http://www.w3.org/2000/svg" xmlns:xlink="http://www.w3.org/1999/xlink" x="0px" y="0px"
	 viewBox="0 0 640 641" style="enable-background:new 0 0 640 641;" xml:space="preserve">
<path d="M588.2,278.6l22.6-22.6c12.5-12.5,12.5-32.7,0-45.3l-181-181c-12.5-12.5-32.7-12.5-45.3,0l-22.6,22.6L588.2,278.6z
	 M340.5,76.1c-59.9,74.3-69.1,157.2-69.1,157.2L33.8,470.9c-18.7,18.7-18.7,49.1,0,67.9l67.9,67.9c18.7,18.7,49.1,18.7,67.9,0
	l237.6-237.6c0,0,82.9-9.2,157.2-69.1L340.5,76.1z M226.2,414.3c-12.5-12.5-12.5-32.7,0-45.3l22.6-22.6c12.5-12.5,32.7-12.5,45.3,0
	c12.5,12.5,12.5,32.7,0,45.3l-22.6,22.6C258.9,426.8,238.7,426.8,226.2,414.3z"/>
</svg>
