<svg id="Layer_1" data-name="Layer 1" xmlns="http://www.w3.org/2000/svg" viewBox="0 0 83.37 83.26"><defs><style>.cls-1{fill:#666;}</style></defs><title>NoAccessibility</title><path class="cls-1" d="M60.57,37.2H49.42l4.39-4.87a5.48,5.48,0,0,0,.56-6.61L38.19,41.9a11.16,11.16,0,0,1,5.14,5A11,11,0,0,1,25,58.74a11.31,11.31,0,0,1-1.4-2.21L18.2,61.89A18.09,18.09,0,0,0,23.26,67a18.31,18.31,0,0,0,27-22.49h8.05l-2.8,13.93a3.67,3.67,0,0,0,7.19,1.44L66,43.77A5.5,5.5,0,0,0,60.57,37.2Zm-28,3.7L50.54,23l-8.82-4.15a9.15,9.15,0,0,0-9.39,1L27.65,23.3A3.66,3.66,0,0,0,32,29.16l4.68-3.52a1.82,1.82,0,0,1,1.88-.19l4.82,2.26-6.21,6.21a17.33,17.33,0,0,0-3.7-.38,18.32,18.32,0,0,0-17.44,23.9L22.56,51A11,11,0,0,1,32.61,40.9Zm24.7-29.33A5.48,5.48,0,0,0,53,20.49l7.72-7.72A5.46,5.46,0,0,0,57.31,11.57Zm.24,11a5.48,5.48,0,0,0,5.24-5.24Z"/><path class="cls-1" d="M71,19.24,21.16,69.11a3.63,3.63,0,0,1-2.55,1.06A3.6,3.6,0,0,1,16.07,64L65.94,14.15A3.6,3.6,0,0,1,71,19.24Z"/></svg>