<svg id="Layer_1" data-name="Layer 1" xmlns="http://www.w3.org/2000/svg" viewBox="0 0 83.37 83.26"><defs><style>.cls-1{fill:#666;}.cls-2{fill:#fff;}</style></defs><title>NoAccessibility</title><path class="cls-1" d="M70.29,61.65a10.94,10.94,0,0,0-19.47,0c-.87,1.69.61,3.42,2.52,3.42H67.77C69.68,65.07,71.16,63.34,70.29,61.65ZM62.74,49l-1.2-4.53L58.3,32.44a5.93,5.93,0,0,0-.66-1.57A6.27,6.27,0,0,0,53.91,28a9,9,0,0,0-.93-.17L51.92,26.4,17.39,60.93l.07.26a3.11,3.11,0,0,0,3.83,2.2l3-.81a3.12,3.12,0,0,0,2.2-3.83l-.7-2.63-.51-1.9,3.29-.88,9-2.41,14.91-4,1.21,4.54a3.12,3.12,0,0,0,3.83,2.2l3-.81A3.12,3.12,0,0,0,62.74,49ZM50.87,40.91a3.08,3.08,0,0,1-2.72-.55,3.12,3.12,0,0,1,1.09-5.49A3.11,3.11,0,0,1,52.52,36a3,3,0,0,1,.55,1.09A3.13,3.13,0,0,1,50.87,40.91ZM19.86,46A3.13,3.13,0,1,1,26,45.79L41.18,30.56,21.85,35.73l.68-6.21a3.12,3.12,0,0,1,2.29-2.68L39.21,23a3.12,3.12,0,0,1,3.33,1.18l2.13,2.9,4.47-4.47-1.56-2.14a9.39,9.39,0,0,0-10-3.51L23.2,20.81a9.36,9.36,0,0,0-6.88,8l-1,9.1A6.23,6.23,0,0,0,13,44.57l3,11.16,7.52-7.52A3.11,3.11,0,0,1,19.86,46Z"/><path class="cls-2" d="M23.69,48.18l-.16,0L26,45.79A3.14,3.14,0,0,1,23.69,48.18Z"/><path class="cls-1" d="M69.27,19.24,48.15,40.36,37.57,50.93,19.39,69.11A3.6,3.6,0,1,1,14.3,64l3.09-3.09L51.92,26.4,64.17,14.15a3.6,3.6,0,0,1,5.1,5.09Z"/></svg>