<svg id="Layer_1" data-name="Layer 1" xmlns="http://www.w3.org/2000/svg" viewBox="0 0 83.37 83.26"><defs><style>.cls-1{fill:#666;}</style></defs><title>NoAccessibility</title><path class="cls-1" d="M68.38,40.22,63.89,26.91,62.24,22l-.92-2.7L57.63,23l.91,2.7,1.65,4.92,3.75,11.11A15.34,15.34,0,0,1,58,59.27L41.68,70.39,29,61.79l-3.7-2.52-.21-.15a14.93,14.93,0,0,1-2-1.64l-3.31,3.31a17,17,0,0,0,1.92,1.68c.3.24.61.46.93.68l3,2,16,10.89,19-12.9A20,20,0,0,0,68.38,40.22Zm-49,1.5,7.72-22.88a109.73,109.73,0,0,1,28.19-.12l4.14-4.14a112.85,112.85,0,0,0-17.78-1.4,114.07,114.07,0,0,0-18.07,1.44L15,40.22a19.94,19.94,0,0,0,2,16.9l3.43-3.43A15.34,15.34,0,0,1,19.41,41.72Z"/><path class="cls-1" d="M29.72,42.87,34.05,38H30.82a1.76,1.76,0,0,1-1.1-3L40.58,22.94a1.44,1.44,0,0,1,2.2,0l3.93,4.39L29.36,44.68A1.82,1.82,0,0,1,29.72,42.87Z"/><path class="cls-1" d="M52.54,45.83H49.31l4.33,4.84a1.77,1.77,0,0,1-1.1,3H44.46v2.24a2.54,2.54,0,0,1-2.39,2.67h-.79a2.54,2.54,0,0,1-2.39-2.67V53.63H30.82a.65.65,0,0,1-.2,0,1.75,1.75,0,0,1-1.25-2.36L49.82,30.8l1.7,1.9,2.12,2.37a1.84,1.84,0,0,1,.4,1.69h0A1.62,1.62,0,0,1,52.8,38a1.09,1.09,0,0,1-.26,0H49.31l1.63,1.83,2.7,3A1.77,1.77,0,0,1,52.54,45.83Z"/><path class="cls-1" d="M71.64,19.16,60.19,30.61,54,36.76h0L52.8,38l-1.86,1.86L37.17,53.63,29,61.79,21.76,69A3.6,3.6,0,1,1,16.67,64l3.16-3.16L57.63,23l3.69-3.7,5.22-5.22a3.6,3.6,0,0,1,5.1,5.09Z"/></svg>