<svg id="Layer_1" data-name="Layer 1" xmlns="http://www.w3.org/2000/svg" viewBox="0 0 83.37 83.26"><defs><style>.cls-1{fill:#666;}</style></defs><title>NoAccessibility</title><path class="cls-1" d="M36.21,27a4.56,4.56,0,0,0-4.56,4.56v7.68L43.89,27Zm18.12,6.32a11.12,11.12,0,0,0-2.85-3.73,10.86,10.86,0,0,0-2.17-1.43l-6.13,6.13h1.23a3.65,3.65,0,1,1,0,7.3H38.94V38.56l-7.29,7.29v6.71A3.67,3.67,0,0,0,35.3,56.2a3.64,3.64,0,0,0,3.64-3.64V48.91h5.47a10.95,10.95,0,0,0,9.92-15.56Zm0,0a11.12,11.12,0,0,0-2.85-3.73,10.86,10.86,0,0,0-2.17-1.43l-6.13,6.13h1.23a3.65,3.65,0,1,1,0,7.3H38.94V38.56l-7.29,7.29v6.71A3.67,3.67,0,0,0,35.3,56.2a3.64,3.64,0,0,0,3.64-3.64V48.91h5.47a10.95,10.95,0,0,0,9.92-15.56ZM36.21,27a4.56,4.56,0,0,0-4.56,4.56v7.68L43.89,27ZM64.38,23.3a30.09,30.09,0,0,0-3.2-3.38c-.63-.57-1.29-1.11-2-1.63L54,23.53a19.09,19.09,0,0,1,2,1.57,20.85,20.85,0,0,1,3.17,3.4A21.87,21.87,0,0,1,25.16,56a19.39,19.39,0,0,1-1.57-2l-5.24,5.24c.52.68,1.06,1.34,1.63,2A29.18,29.18,0,0,0,64.38,23.3ZM19.8,41.62A21.88,21.88,0,0,1,49.67,21.25l5.5-5.5A29.18,29.18,0,0,0,15.81,55.11l5.5-5.5A21.63,21.63,0,0,1,19.8,41.62ZM36.21,27a4.56,4.56,0,0,0-4.56,4.56v7.68L43.89,27ZM31.65,52.56A3.67,3.67,0,0,0,35.3,56.2a3.64,3.64,0,0,0,3.64-3.64V48.91h5.47a10.95,10.95,0,0,0,9.92-15.56,11.12,11.12,0,0,0-2.85-3.73,10.86,10.86,0,0,0-2.17-1.43l-6.13,6.13h1.23a3.65,3.65,0,1,1,0,7.3H38.94V38.56l-7.29,7.29ZM36.21,27a4.56,4.56,0,0,0-4.56,4.56v7.68L43.89,27Zm18.12,6.32a11.12,11.12,0,0,0-2.85-3.73,10.86,10.86,0,0,0-2.17-1.43l-6.13,6.13h1.23a3.65,3.65,0,1,1,0,7.3H38.94V38.56l-7.29,7.29v6.71A3.67,3.67,0,0,0,35.3,56.2a3.64,3.64,0,0,0,3.64-3.64V48.91h5.47a10.95,10.95,0,0,0,9.92-15.56ZM36.21,27a4.56,4.56,0,0,0-4.56,4.56v7.68L43.89,27Zm18.12,6.32a11.12,11.12,0,0,0-2.85-3.73,10.86,10.86,0,0,0-2.17-1.43l-6.13,6.13h1.23a3.65,3.65,0,1,1,0,7.3H38.94V38.56l-7.29,7.29v6.71A3.67,3.67,0,0,0,35.3,56.2a3.64,3.64,0,0,0,3.64-3.64V48.91h5.47a10.95,10.95,0,0,0,9.92-15.56Z"/><path class="cls-1" d="M68.44,19.24,59.18,28.5l-4.85,4.85L32.64,55l-4.08,4.08-10,10a3.59,3.59,0,0,1-5.09,0,3.52,3.52,0,0,1-1-1.92,3.59,3.59,0,0,1,1-3.17l4.87-4.87,5.24-5.24,8.06-8.06,7.29-7.29L49.31,28.19,54,23.53l5.24-5.24,4.14-4.14a3.6,3.6,0,0,1,5.09,5.09Z"/></svg>