<svg id="Layer_1" data-name="Layer 1" xmlns="http://www.w3.org/2000/svg" viewBox="0 0 83.37 83.26"><defs><style>.cls-1{fill:#354896;}.cls-2{fill:#fff;}</style></defs><title>Map</title><path class="cls-1" d="M69.52,36.63c0,.29,0,.57,0,.86a25.78,25.78,0,0,1-10.94,20l-.21.15-.2.17-17.85,15L23.86,57.31l-.18-.17-.2-.16a25.67,25.67,0,0,1-9-14.09,28.23,28.23,0,0,1-.7-7.12,27.84,27.84,0,0,1,27.12-27h.73A27.89,27.89,0,0,1,69.52,36.63Z"/><path class="cls-2" d="M69.46,16.47a34.63,34.63,0,0,0-3.52-4.12A35.58,35.58,0,0,1,69.46,16.47Z"/><path class="cls-2" d="M74.7,27.23q-.35-1.21-.78-2.4c-.2-.53-.4-1-.62-1.56s-.37-.86-.58-1.28c-.39-.84-.81-1.65-1.27-2.45l-.69-1.15c-.12-.19-.23-.37-.35-.54L69.86,17l-.4-.56a35.58,35.58,0,0,0-3.52-4.12q-.59-.58-1.2-1.14c-.4-.37-.82-.73-1.24-1.08s-.86-.69-1.3-1c-.22-.16-.44-.33-.67-.48-.45-.32-.91-.63-1.37-.93s-.94-.59-1.42-.86-1-.54-1.45-.79A34.21,34.21,0,0,0,41.66,2.29h-.9a34.38,34.38,0,0,0-32.57,42A32.07,32.07,0,0,0,19.41,62l18,17a4,4,0,0,0,5.38.15l19.51-16.4A32.2,32.2,0,0,0,76,37.69c0-.36,0-.71,0-1.06A34.31,34.31,0,0,0,74.7,27.23ZM69.5,37.49a25.78,25.78,0,0,1-10.94,20l-.21.15-.2.17-17.85,15L23.86,57.31l-.18-.17-.2-.16a25.67,25.67,0,0,1-9-14.09,28.23,28.23,0,0,1-.7-7.12,27.84,27.84,0,0,1,27.12-27h.73A27.89,27.89,0,0,1,69.52,36.63C69.52,36.92,69.51,37.2,69.5,37.49Z"/><path class="cls-2" d="M28,25.51A2.93,2.93,0,0,1,31,22.58H52.42a2.93,2.93,0,0,1,2.93,2.93v7.87a7.76,7.76,0,0,0-2.93-1v-2a2,2,0,0,0-2-1.95H44.61a2,2,0,0,0-2,1.95v2H40.71v-2a2,2,0,0,0-2-1.95H32.9A2,2,0,0,0,31,30.39v2a8.06,8.06,0,0,0-2.93,1ZM26.07,40.15a5.86,5.86,0,0,1,5.85-5.86H51.44a5.86,5.86,0,0,1,5.86,5.86V48a1.95,1.95,0,1,1-3.9,0V46H30v2a1.95,1.95,0,0,1-3.9,0Z"/></svg>