<svg id="Layer_1" data-name="Layer 1" xmlns="http://www.w3.org/2000/svg" viewBox="0 0 83.37 83.26"><defs><style>.cls-1{fill:#008b52;}.cls-2{fill:#fff;}</style></defs><title>Map</title><path class="cls-1" d="M69.5,37c0,.29,0,.58,0,.86a25.81,25.81,0,0,1-10.95,20l-.21.15-.2.17-17.85,15L23.84,57.72l-.18-.17-.2-.16a25.64,25.64,0,0,1-9-14.08,28.27,28.27,0,0,1-.69-7.12,27.85,27.85,0,0,1,27.11-27h.73A27.89,27.89,0,0,1,69.5,37Z"/><path class="cls-2" d="M74.68,27.64c-.31-1.09-.67-2.15-1.08-3.19-.14-.34-.27-.67-.42-1s-.38-.86-.59-1.29A34.46,34.46,0,0,0,56.53,6.09c-.43-.21-.86-.4-1.29-.59l-1-.42c-1-.41-2.1-.77-3.19-1.08a34.31,34.31,0,0,0-9.4-1.3h-.89A34.39,34.39,0,0,0,8.17,44.76,32.08,32.08,0,0,0,19.39,62.43l18,17,.3.26a4,4,0,0,0,1,.57,3.92,3.92,0,0,0,1.47.28,4.07,4.07,0,0,0,2.6-1L62.3,63.2A32.17,32.17,0,0,0,76,38.1c0-.35,0-.7,0-1.06A34.31,34.31,0,0,0,74.68,27.64ZM69.49,37.9a25.81,25.81,0,0,1-10.95,20l-.21.15-.2.17-17.85,15L23.84,57.72l-.18-.17-.2-.16a25.64,25.64,0,0,1-9-14.08,28.27,28.27,0,0,1-.69-7.12,27.85,27.85,0,0,1,27.11-27h.73A27.89,27.89,0,0,1,69.5,37C69.5,37.33,69.49,37.62,69.49,37.9Z"/><path class="cls-2" d="M24.35,35.58H58.94a2.25,2.25,0,0,0,2.24-2.25,2.19,2.19,0,0,0-.38-1.24l-4.61-6.93a2.93,2.93,0,0,0-2.44-1.3H29.54a2.93,2.93,0,0,0-2.44,1.3l-4.61,6.92a2.25,2.25,0,0,0,1.86,3.5Zm1.67,2V52.19A2.93,2.93,0,0,0,29,55.12H42.62a2.93,2.93,0,0,0,2.93-2.93V37.53H41.64V47.3H29.92V37.53Zm27.35,0V53.16a2,2,0,1,0,3.9,0V37.53Z"/></svg>