<?xml version="1.0" encoding="utf-8"?>
<!-- Generator: Adobe Illustrator 27.3.1, SVG Export Plug-In . SVG Version: 6.00 Build 0)  -->
<svg version="1.1" id="Primary" xmlns="http://www.w3.org/2000/svg" xmlns:xlink="http://www.w3.org/1999/xlink" x="0px" y="0px"
	 viewBox="0 0 512 512" style="enable-background:new 0 0 512 512;" xml:space="preserve">
<style type="text/css">
	.st0{fill:#282828;}
	.st1{fill:#FFFFFF;}
</style>
<path class="st0" d="M430.1,174.1C430.1,77.9,352.2,0,256,0C159.9,0,82.2,77.5,81.9,173.6c-0.2,47.1,18.4,89.8,48.6,121.2l0,0
	c44.5,52.8,80,112.4,105.1,176.7l14.2,36.3c2.2,5.6,10.1,5.6,12.3,0l14.2-36.3c25.1-64.2,60.7-123.9,105.1-176.7l0,0
	C411.6,263.5,430.1,221,430.1,174.1L430.1,174.1z"/>
<g>
	<path class="st1" d="M377.6,165.7c-3.1-10.8-9.1-20.5-17.3-27.7L305.4,90l1.7-4.6c2.9-7.8-1.4-16.6-9.8-18.8
		c-7.3-2-14.8,2.6-17.4,9.6l-1.5,3.9l-72.9,0.7c-10.9,0.1-21.7,3.5-31.2,9.7c-4.1,2.7-2.9,9.3,1.8,9.4c12.7,0.4,35,3,69.2,13.9
		c7.2,2.3,12.8,8,15,15.2l0,0l0,0.1c7.1,6.2,17.3,10,26.8,9.9l0.2-0.1c6.3-3.9,14.2-4.6,21.1-1.6c33.2,14.1,51.8,26.6,61.7,34.6
		C373.9,174.7,379.1,170.5,377.6,165.7L377.6,165.7z"/>
	<path class="st1" d="M276,169.3L276,169.3l5.8-15.8l0.5-1.2c-1.5,0-3-0.1-4.5-0.3c-6.6-0.7-13.3-3.1-18.8-6.9
		c-1.2-0.8-2.5-1.7-3.6-2.7l-0.1,0l-0.5,1.2l-5.9,15.8h0l-47.3,127.9c-2,6.6,2.3,14.6,9.1,17.4c1.8,0.6,3.6,1,5.2,1
		c5.6,0.1,10.5-3.1,12.6-8.7L276,169.3L276,169.3z"/>
</g>
</svg>
