<?xml version="1.0" encoding="utf-8"?>
<!-- Generator: Adobe Illustrator 27.3.1, SVG Export Plug-In . SVG Version: 6.00 Build 0)  -->
<svg version="1.1" id="Primary" xmlns="http://www.w3.org/2000/svg" xmlns:xlink="http://www.w3.org/1999/xlink" x="0px" y="0px"
	 viewBox="0 0 512 512" style="enable-background:new 0 0 512 512;" xml:space="preserve">
<style type="text/css">
	.st0{fill:#1B54A8;}
	.st1{fill:#FFFFFF;}
</style>
<path class="st0" d="M430.1,174.1C430.1,77.9,352.2,0,256,0C159.9,0,82.2,77.5,81.9,173.6c-0.2,47.1,18.4,89.8,48.6,121.2l0,0
	c44.5,52.8,80,112.4,105.1,176.7l14.2,36.3c2.2,5.6,10.1,5.6,12.3,0l14.2-36.3c25.1-64.2,60.7-123.9,105.1-176.7l0,0
	C411.6,263.5,430.1,221,430.1,174.1L430.1,174.1z"/>
<path class="st1" d="M210,304.5c7.6,2.8,15.2-0.7,18-8.3l0,0l45.7-124.6l0,0l-27-9.7L201,286.5C198.9,293.4,203.1,301.7,210,304.5
	L210,304.5L210,304.5z M327.7,171.5l-1.4,4.2l29.8,11.1c6.2,2.8,13.9-0.7,16.6-6.9c0.7-1.4,0.7-2.1,0.7-3.5
	c2.8-34.6-10.4-68.6-36-92.1c0.7,3.5,1.4,6.9,1.4,10.4v2.8C340.2,122.3,336.7,147.3,327.7,171.5L327.7,171.5L327.7,171.5z
	 M325.6,95.3c0-15.2-9.7-29.1-24.2-34.6L300,60c-14.5-5.5-31.2-1.4-41.6,10.4l-2.1,2.1c-15.9,17.3-27.7,38.1-36,59.6l-0.7,4.2
	l93.5,34.6l1.4-4.2c8.3-22.2,11.8-45.7,11.1-69.2V95.3L325.6,95.3L325.6,95.3z M168.4,101.6c-4.2,6.2-2.1,13.8,3.5,18
	c0.7,0.7,2.1,1.4,3.5,1.4l31.2,11.1l1.4-4.2c8.3-23.6,21.5-45.7,38.8-64.4l2.1-2.1c2.8-2.8,5.5-5.5,9-8.3
	C221.7,54.5,189.2,72.5,168.4,101.6L168.4,101.6z"/>
</svg>
