<?xml version="1.0" encoding="utf-8"?>
<!-- Generator: Adobe Illustrator 27.3.1, SVG Export Plug-In . SVG Version: 6.00 Build 0)  -->
<svg version="1.1" id="Primary" xmlns="http://www.w3.org/2000/svg" xmlns:xlink="http://www.w3.org/1999/xlink" x="0px" y="0px"
	 viewBox="0 0 512 512" style="enable-background:new 0 0 512 512;" xml:space="preserve">
<style type="text/css">
	.st0{fill:#F15A24;}
	.st1{fill:#FFFFFF;}
</style>
<path class="st0" d="M430.1,174.1C430.1,77.9,352.2,0,256,0C159.9,0,82.2,77.5,81.9,173.6c-0.2,47.1,18.4,89.8,48.6,121.2l0,0
	c44.5,52.8,80,112.4,105.1,176.7l14.2,36.3c2.2,5.6,10.1,5.6,12.3,0l14.2-36.3c25.1-64.2,60.7-123.9,105.1-176.7l0,0
	C411.6,263.5,430.1,221,430.1,174.1L430.1,174.1z"/>
<path class="st1" d="M356.1,156.7l7.8-7.8c4.2-4.2,4.2-11.3,0-15.5l-61.5-61.5c-4.2-4.2-10.8-4.2-14.9,0l0,0l-7.8,7.8L356.1,156.7
	L356.1,156.7z M271.9,88c-12.5,15.5-20.3,34.1-23.3,53.2L168,221.8c-6.6,6.6-6.6,16.7,0,23.3l0,0l23.3,23.3c6.6,6.6,16.7,6.6,23.3,0
	l80-81.2c19.7-3,38.2-11.3,53.2-23.3L271.9,88L271.9,88z M233,202.7c-4.2-4.2-4.2-10.8,0-15.5l0,0l7.8-7.8c4.2-4.2,11.3-4.2,15.5,0
	c4.2,4.2,4.2,11.3,0,15.5l-7.8,7.8C244.4,206.8,237.2,206.8,233,202.7z"/>
</svg>
