<svg xmlns="http://www.w3.org/2000/svg" viewBox="0 0 83.37 83.26"><defs><style>.cls-1{fill:#edce1b;}.cls-2{fill:#fff;}</style></defs><title>Pin</title><g id="Layer_1" data-name="Layer 1"><path class="cls-1" d="M70.63,28.94a28.94,28.94,0,1,0-48.7,21.11h-.05l.72.61c.24.22.47.44.72.64C27.36,55,40.24,66.83,43,82.88a.47.47,0,0,0,.93,0C46.05,66.82,56,55,60.05,51.3c.25-.2.48-.43.72-.64l.72-.61h-.05A28.83,28.83,0,0,0,70.63,28.94Z"/><path class="cls-2" d="M43.76,15.73l2.73,5.54a2.34,2.34,0,0,0,1.76,1.28l6.11.89a2.34,2.34,0,0,1,2,2.62,2.28,2.28,0,0,1-.71,1.38l-4.42,4.31a2.33,2.33,0,0,0-.67,2.06l1,6.09a2.34,2.34,0,0,1-1.9,2.7,2.39,2.39,0,0,1-1.48-.24l-5.43-2.88a2.32,2.32,0,0,0-2.17,0l-5.47,2.87a2.34,2.34,0,0,1-3.16-1,2.41,2.41,0,0,1-.23-1.47l1.05-6.09a2.33,2.33,0,0,0-.67-2.06l-4.43-4.31A2.34,2.34,0,0,1,29,23.48l6.11-.89a2.34,2.34,0,0,0,1.76-1.28l2.73-5.54a2.34,2.34,0,0,1,3.13-1.07A2.43,2.43,0,0,1,43.76,15.73Z"/></g></svg>