<?xml version="1.0" encoding="utf-8"?>
<!-- Generator: Adobe Illustrator 27.3.1, SVG Export Plug-In . SVG Version: 6.00 Build 0)  -->
<svg version="1.1" id="Layer_1" xmlns="http://www.w3.org/2000/svg" xmlns:xlink="http://www.w3.org/1999/xlink" x="0px" y="0px"
	 viewBox="0 0 512 512" style="enable-background:new 0 0 512 512;" xml:space="preserve">
<g>
	<path d="M476.9,212.8c-6.6-23.1-19.4-43.8-37-59.2L322.6,51l3.6-9.8c6.2-16.7-3-35.5-20.9-40.2c-15.6-4.3-31.6,5.6-37.2,20.5
		l-3.2,8.3l-155.8,1.5c-23.3,0.2-46.4,7.5-66.7,20.7c-8.8,5.8-6.2,19.9,3.8,20.1c27.1,0.9,74.8,6.4,147.9,29.7
		c15.4,4.9,27.4,17.1,32.1,32.5l0,0v0.2c15.2,13.3,37,21.4,57.3,21.2l0.4-0.2c13.5-8.3,30.3-9.8,45.1-3.4
		c71,30.1,110.7,56.8,131.9,73.9C468.9,232,480.1,223.1,476.9,212.8L476.9,212.8z"/>
	<path d="M259.7,220.5L259.7,220.5l12.4-33.8l1.1-2.6c-3.2,0-6.4-0.2-9.6-0.6c-14.1-1.5-28.4-6.6-40.2-14.7
		c-2.6-1.7-5.3-3.6-7.7-5.8h-0.2l-1.1,2.6l-12.6,33.8l0,0L100.7,472.7c-4.3,14.1,4.9,31.2,19.4,37.2c3.8,1.3,7.7,2.1,11.1,2.1
		c12,0.2,22.4-6.6,26.9-18.6L259.7,220.5L259.7,220.5z"/>
</g>
</svg>
