<svg id="Layer_1" data-name="Layer 1" xmlns="http://www.w3.org/2000/svg" viewBox="0 0 83.37 83.26"><defs><style>.cls-1{fill:#666;}</style></defs><title>NoAccessibility</title><path class="cls-1" d="M71.22,45.29l-2.76-8.83a9.41,9.41,0,0,0-9-6.61,7.88,7.88,0,0,0-1.09.07,9.41,9.41,0,0,0-7.89,6.54l-.61,2-2.14,6.87a3,3,0,0,0,2,3.72,2.89,2.89,0,0,0,.88.14l-.84,2.49a1.49,1.49,0,0,0,1.41,2H52.8v8.9a3,3,0,1,0,5.94,0V53.6h1.48v8.9a3,3,0,0,0,5.94,0V53.6h1.65a1.48,1.48,0,0,0,1.41-2l-.83-2.49a3.1,3.1,0,0,0,.88-.14A3,3,0,0,0,71.22,45.29ZM62.53,19.2A4.35,4.35,0,0,0,60.1,18l-5,5a4.4,4.4,0,0,0,1.16,2.44,4.45,4.45,0,1,0,6.29-6.29ZM41.67,18a2.22,2.22,0,0,0-2.22,2.23V32.1l4.45-4.45V20.21A2.22,2.22,0,0,0,41.67,18Zm-2.22,20.7V63.25a2.23,2.23,0,0,0,4.45,0v-29ZM35.6,45.3l-.66-2.11L24.61,53.52v9a2.88,2.88,0,0,0,.18,1,3,3,0,0,0,5.75-1V48.15A3,3,0,0,0,35.72,46,2.58,2.58,0,0,0,35.6,45.3Zm-2.23-7.12-.64-2.07a8.9,8.9,0,0,0-8.49-6.26h-.75A8.9,8.9,0,0,0,15,36.11L12.13,45.3a3,3,0,0,0,5.06,2.85v6.21ZM17.19,60.94V62.5a3,3,0,1,0,5.93,0V55Zm6.67-43a4.46,4.46,0,1,0,4.46,4.45A4.46,4.46,0,0,0,23.86,18Z"/><path class="cls-1" d="M69.07,19.24,49.89,38.42l-6,6-4.45,4.45L19.2,69.11a3.63,3.63,0,0,1-2.55,1.06,3.59,3.59,0,0,1-2.54-1.06,3.52,3.52,0,0,1-1-1.92,3.59,3.59,0,0,1,1-3.17L39.45,38.68l4.45-4.45L55.08,23.05l5-5L64,14.15a3.6,3.6,0,0,1,5.09,5.09Z"/></svg>