<?xml version="1.0" encoding="utf-8"?>
<!-- Generator: Adobe Illustrator 23.0.1, SVG Export Plug-In . SVG Version: 6.00 Build 0)  -->
<svg version="1.1" id="Layer_1" xmlns="http://www.w3.org/2000/svg" xmlns:xlink="http://www.w3.org/1999/xlink" x="0px" y="0px"
	 viewBox="0 0 640 641" style="enable-background:new 0 0 640 641;" xml:space="preserve">
<path d="M522.1,360.7l-73.1-81.7h54.5c23.4,0,35.2-31.6,18.6-50.1L338.6,24.1c-10.3-11.5-26.9-11.5-37.2,0L117.9,228.9
	c-16.6,18.5-4.8,50.1,18.6,50.1h54.5l-73.1,81.7c-16.6,18.5-4.8,50.1,18.6,50.1h54.5l-73.1,81.7c-16.6,18.5-4.8,50.1,18.6,50.1H273
	v37.9c0,24.8,18,45,40.3,45h13.4c22.3,0,40.3-20.1,40.3-45v-37.9h136.5c23.4,0,35.2-31.6,18.6-50.1l-73.1-81.7h54.5
	C526.9,410.8,538.6,379.2,522.1,360.7z"/>
</svg>
