<svg id="Layer_1" data-name="Layer 1" xmlns="http://www.w3.org/2000/svg" viewBox="0 0 597.23 520"><title>Warning</title><path d="M23.5,557.12l283-488.85a15.58,15.58,0,0,1,27,0l283,488.85A15.58,15.58,0,0,1,603,580.5H37A15.58,15.58,0,0,1,23.5,557.12ZM322.82,419.85h0A21.15,21.15,0,0,0,344,398.71V283.15A21.15,21.15,0,0,0,322.82,262h0a21.14,21.14,0,0,0-21.14,21.14V398.71A21.14,21.14,0,0,0,322.82,419.85Zm0,78.21a20.49,20.49,0,1,0-15.15-6A20.54,20.54,0,0,0,322.82,498.06ZM83.25,538.22h473.5L320,129.54Z" transform="translate(-21.38 -60.5)"/></svg>