<svg id="Layer_1" data-name="Layer 1" xmlns="http://www.w3.org/2000/svg" viewBox="0 0 200 200"><title>ICON_</title><path d="M150,149.9c-13.5,0-22,4.2-29.5,8-6.5,3.3-11.8,6-20.5,6-9,0-14-2.5-20.5-6-7.5-3.8-15.7-8-29.5-8s-22,4.2-29.5,8c-6.5,3.3-11.7,6-20.5,6v19.5c13.5,0,22-4.2,29.5-8,6.5-3.3,11.7-6,20.5-6s14,2.5,20.5,6c7.5,3.8,15.7,8,29.5,8s22-4.2,29.5-8c6.5-3.3,11.8-6,20.5-6,9,0,14,2.5,20.5,6,7.5,3.8,15.8,8,29.5,8V163.9c-9,0-14-2.5-20.5-6C172,154.1,163.5,149.9,150,149.9Zm0-44.5c-13.5,0-22,4.3-29.5,8-6.5,3.2-11.8,6-20.5,6-9,0-14-2.5-20.5-6-7.5-3.8-15.7-8-29.5-8s-22,4.3-29.5,8c-6.5,3.2-11.7,6-20.5,6v19.5c13.5,0,22-4.3,29.5-8,6.5-3.5,11.5-6,20.5-6s14,2.5,20.5,6c7.5,3.8,15.7,8,29.5,8s22-4.3,29.5-8c6.5-3.5,11.5-6,20.5-6s14,2.5,20.5,6c7.5,3.8,15.8,8,29.5,8V119.4c-9,0-14-2.5-20.5-6C172,109.6,163.5,105.4,150,105.4Zm29.5-80.8c-7.5-3.8-15.8-8-29.5-8s-22,4.2-29.5,8c-6.5,3.2-11.8,6-20.5,6-9,0-14-2.5-20.5-6-7.5-3.7-15.7-8-29.5-8s-22,4.2-29.5,8c-6.5,3.3-11.7,6-20.5,6V49.9c13.5,0,22-4.3,29.5-8,6.5-3.3,11.7-6,20.5-6s14,2.5,20.5,6c7.5,3.8,15.7,8,29.5,8s22-4.3,29.5-8c6.5-3.2,11.8-6,20.5-6,9,0,14,2.5,20.5,6,7.5,3.8,15.8,8,29.5,8V30.4C191,30.4,186,27.9,179.5,24.6ZM150,60.9c-13.5,0-22,4.3-29.5,8-6.5,3.5-11.5,6-20.5,6s-14-2.5-20.5-6c-7.5-3.8-15.7-8-29.5-8s-22,4.3-29.5,8C14,72.4,9,74.9,0,74.9V94.4c13.5,0,22-4.3,29.5-8,6.5-3.2,11.8-6,20.5-6s14,2.5,20.5,6c7.5,3.8,15.7,8,29.5,8s22-4.3,29.5-8c6.5-3.2,11.8-6,20.5-6,9,0,14,2.5,20.5,6,7.5,3.8,15.8,8,29.5,8V74.9c-9,0-14-2.5-20.5-6C172,65.1,163.5,60.9,150,60.9Z"/></svg>